<svg xmlns="http://www.w3.org/2000/svg" viewBox="0 0 233.25 281.21"><defs><style>.cls-1{fill:#f5f6f6;}.cls-12,.cls-2,.cls-5,.cls-6{fill:#fff;}.cls-10,.cls-14,.cls-15,.cls-3{fill:#cb2026;}.cls-4{fill:#273339;}.cls-5{opacity:0.3;}.cls-10,.cls-12,.cls-14,.cls-15,.cls-5,.cls-6,.cls-8{isolation:isolate;}.cls-6{opacity:0.1;}.cls-7{fill:#fbb474;}.cls-8{fill:#010101;opacity:0.2;}.cls-9{fill:#ec893f;}.cls-10{opacity:0.4;}.cls-11{opacity:0.6;}.cls-12,.cls-13{opacity:0.7;}.cls-14{opacity:0.15;}.cls-15{opacity:0.5;}.cls-16{fill:#01999a;}</style></defs><g id="Layer_2" data-name="Layer 2"><g id="Layer_1-2" data-name="Layer 1"><g id="freepik--Shadow--inject-74"><ellipse id="freepik--path--inject-74" class="cls-1" cx="106.07" cy="275.02" rx="106.07" ry="6.19"/></g><g id="freepik--cross-icon--inject-74"><circle class="cls-2" cx="179.37" cy="195.07" r="24.89"/><path class="cls-3" d="M179.37,220.27a25.2,25.2,0,1,1,25.18-25.21h0A25.22,25.22,0,0,1,179.37,220.27Zm0-49.77A24.58,24.58,0,1,0,204,195.08h0a24.6,24.6,0,0,0-24.58-24.57Z"/><rect class="cls-3" x="175.36" y="180.96" width="8.01" height="28.22"/><rect class="cls-3" x="165.26" y="191.07" width="28.22" height="8.01"/></g><g id="freepik--pulse-icon--inject-74"><path class="cls-3" d="M10.77,6.94l-.54-.58A24.23,24.23,0,0,1,23.44,0l.11.79A23.3,23.3,0,0,0,10.77,6.94Z"/><path class="cls-3" d="M5,15.52l-.73-.28A24.19,24.19,0,0,1,7.37,9.63L8,10.1A24.11,24.11,0,0,0,5,15.52Z"/><circle class="cls-3" cx="26.87" cy="24.06" r="21.56"/><path class="cls-2" d="M39.75,14.35A9,9,0,0,0,27,14.12l-.12.12a9,9,0,0,0-12.72,0l-.13.12a9.21,9.21,0,0,0,.32,12.83L24.59,37.39a3.29,3.29,0,0,0,4.66,0h0L39.47,27.18A9.21,9.21,0,0,0,39.75,14.35Z"/><path class="cls-3" d="M26.87,33.48h0a.79.79,0,0,1-.71-.52l-4.55-13.3-1.9,5.56a.79.79,0,0,1-.75.53H11.35a.79.79,0,0,1,0-1.58h7.07L20.89,17a.79.79,0,0,1,1-.49.8.8,0,0,1,.48.49L27,30.51l4.49-10.59a.81.81,0,0,1,.68-.48.8.8,0,0,1,.73.41l2.37,4.32h7.16a.79.79,0,1,1,0,1.57H34.82a.78.78,0,0,1-.69-.4L32.26,22,27.6,33A.8.8,0,0,1,26.87,33.48Z"/></g><g id="freepik--Character--inject-74"><path class="cls-4" d="M146.49,247.44h-82a9.63,9.63,0,0,1-9.74-9.52c0-.28,0-.57,0-.85L68,40.66A11.35,11.35,0,0,1,79.15,30.25h82a9.64,9.64,0,0,1,9.74,9.53,6.47,6.47,0,0,1,0,.88L157.6,237.07A11.34,11.34,0,0,1,146.49,247.44Z"/><path class="cls-4" d="M164.67,110.24H162.6a2.69,2.69,0,0,1-2.72-2.65,2.26,2.26,0,0,1,0-.26l2.54-37.54a3.14,3.14,0,0,1,3.1-2.91h2.07a2.69,2.69,0,0,1,2.72,2.65c0,.09,0,.17,0,.26l-2.54,37.54A3.14,3.14,0,0,1,164.67,110.24Z"/><path class="cls-3" d="M66.84,85.19H64.78A2.2,2.2,0,0,1,62.55,83a1.09,1.09,0,0,1,0-.18l.92-13.56A2.59,2.59,0,0,1,66,66.92h2.07a2.21,2.21,0,0,1,2.22,2.19v.17l-.92,13.56A2.59,2.59,0,0,1,66.84,85.19Z"/><path class="cls-3" d="M65.21,109.41H63.14a2.2,2.2,0,0,1-2.22-2.18v-.18l.92-13.56a2.6,2.6,0,0,1,2.54-2.36h2.08a2.21,2.21,0,0,1,2.22,2.2v.16l-.92,13.56A2.58,2.58,0,0,1,65.21,109.41Z"/><path class="cls-3" d="M144.75,247.44h-82A9.61,9.61,0,0,1,53,237.92a8,8,0,0,1,0-.85L66.3,40.66A11.34,11.34,0,0,1,77.46,30.29h82a9.61,9.61,0,0,1,9.73,9.52,8,8,0,0,1,0,.85L155.87,237.07A11.34,11.34,0,0,1,144.75,247.44Z"/><polygon class="cls-5" points="53.91 234.87 66.86 43.21 168.25 43.21 155.3 234.87 53.91 234.87"/><polygon class="cls-6" points="93.94 234.87 130.12 43.21 152.83 43.21 116.65 234.87 93.94 234.87"/><polygon class="cls-6" points="76.78 234.87 112.96 43.21 124.47 43.21 88.29 234.87 76.78 234.87"/><path class="cls-2" d="M108.21,35.1H128a1.18,1.18,0,0,1,1.2,1.16v.12h0a1.4,1.4,0,0,1-1.37,1.29H108a1.18,1.18,0,0,1-1.2-1.17v-.12h0A1.4,1.4,0,0,1,108.21,35.1Z"/><polygon class="cls-7" points="104.09 266.34 97.17 267 94.67 251.01 101.6 250.34 104.09 266.34"/><path class="cls-4" d="M96.37,263.61l7.26-2.25a.5.5,0,0,1,.64.29l2.36,5.76a1.18,1.18,0,0,1-.69,1.54.16.16,0,0,1-.09,0c-2.63.79-5.13,1-8.29,2.36-3.7,1.57-5.25,3.68-9.23,3.68-2.86,0-3.5-2.62-2.29-3,5.5-1.66,4.78-3,8.77-7.33A3.59,3.59,0,0,1,96.37,263.61Z"/><polygon class="cls-8" points="94.67 251.01 95.95 259.26 102.89 258.59 101.6 250.34 94.67 251.01"/><path class="cls-2" d="M99.68,49A88.07,88.07,0,0,0,72.47,50.4a7.24,7.24,0,0,0-5.82,6.28c-1,8.69-2.1,28.17,2.28,57.22l37.14-3.14c.07-5.27-3.67-29.29-.58-54.21A6.66,6.66,0,0,0,99.85,49Z"/><path class="cls-4" d="M78.05,56.44l1.33,2.66a.77.77,0,0,0,.7.45l1.43.08a1.16,1.16,0,0,0,.72-.22l2.47-1.85-3-2.22Z"/><path class="cls-4" d="M81.56,58.87a2.41,2.41,0,0,0-1.67-.14c-1.17,4.13-2.45,16-2.59,21.22C80.85,90.29,82,91.34,82,91.34l1.8-12.45S81.8,66.15,81.56,58.87Z"/><path class="cls-7" d="M91.81,31.08C91,36.2,90.24,45.56,93.92,48.87c-2.69,2.82-6.22,6.1-12.27,6.47s-5.12-3.82-3.58-6.06c5.64-1.51,5.37-5.72,4.26-9.65Z"/><path class="cls-1" d="M95.46,48.42A6.88,6.88,0,0,0,94.13,48a.53.53,0,0,0-.59.24c-.58,1-2.35,5.41-11.89,7.11,1.57.93,3.65,3.8,4.55,5.19C89.06,59,96.5,54.6,95.79,48.86A.58.58,0,0,0,95.46,48.42Z"/><path class="cls-1" d="M78.12,49.52a.55.55,0,0,0-.42-.66.41.41,0,0,0-.22,0,6.74,6.74,0,0,0-1,.26.82.82,0,0,0-.2.12c-.73.67-4.72,6.42-1,11.07a13.57,13.57,0,0,1,6.33-5C79,54.13,77.64,51.88,78.12,49.52Z"/><path class="cls-8" d="M88,34.57l-5.61,5.06a16.64,16.64,0,0,1,.57,2.79c2.16-.37,5.08-2.82,5.24-5.1A7.49,7.49,0,0,0,88,34.57Z"/><path class="cls-4" d="M80.45,15.59c-4.84,1.9-5.15,5.87-4.71,10.22s5.17,1.47,6.22-1.25S87.16,13,80.45,15.59Z"/><path class="cls-7" d="M95.89,24.26c-1.34,6.84-1.79,10.9-5.7,14.06C84.29,43,76.3,39,75.59,31.9,75,25.55,77.26,15.41,84.3,13.43A9.2,9.2,0,0,1,95.89,24.26Z"/><path class="cls-4" d="M95.61,29.92c-5.76.31-4.54-3-3.5-4.83s-1.08-5,.31-6.6c-2.48,1-5.1.18-8.42-2.13-2.58-1.8-5.81,5.39-9,1.78-3-3.4-.21-8.53,6.92-9.36S90.4,13,95.08,12.55s3.06,3.41,2.14,4.2C101.15,17,103.29,20.76,95.61,29.92Z"/><path class="cls-4" d="M96.32,17.23a5.77,5.77,0,0,0,3-5C100.86,14.93,100.7,18,96.32,17.23Z"/><path class="cls-4" d="M81.39,31.57a4.73,4.73,0,0,0,3.6-.85.16.16,0,0,0,0-.22h0a.17.17,0,0,0-.23,0,4.55,4.55,0,0,1-4,.62.18.18,0,0,0-.21.11.16.16,0,0,0,.11.21A5.88,5.88,0,0,0,81.39,31.57Z"/><path class="cls-7" d="M97.28,32a6.64,6.64,0,0,1-4.39,2.53c-2.29.3-3-1.83-2.09-3.82.87-1.79,3.14-4.1,5.25-3.48S98.6,30.29,97.28,32Z"/><path class="cls-4" d="M95,180.8c.28-20.52,2.9-69.37,2.9-69.37l-29,2.44s5.76,50.35,9.23,71.28c3.62,21.75,14.7,72.72,14.7,72.72l11.79-1S100.36,196.66,95,180.8Z"/><polygon class="cls-3" points="92.18 258.19 106.15 257 105.6 252.49 91.04 253.47 92.18 258.19"/><path class="cls-4" d="M85.57,24.67c-.07.56-.43,1-.79.94s-.59-.52-.52-1.09.44-1,.79-.94S85.65,24.11,85.57,24.67Z"/><path class="cls-4" d="M79.16,24.17c-.07.56-.43,1-.79.94s-.59-.53-.52-1.09.44-1,.79-.94S79.24,23.58,79.16,24.17Z"/><path class="cls-9" d="M81,24.83a19.41,19.41,0,0,1-3.37,3.92,3.38,3.38,0,0,0,2.55.64Z"/><path class="cls-10" d="M75.1,24.31c-.11.89.79,1.64,2,1.8a2.14,2.14,0,0,0,2.51-1.43"/><path class="cls-10" d="M82.53,25.14c-.17.89.7,1.69,1.92,1.93a2.17,2.17,0,0,0,2.6-1.28"/><path class="cls-4" d="M84.94,27.31a2.66,2.66,0,0,1-2-.73,1.67,1.67,0,0,1-.57-1.39,3.84,3.84,0,0,0-1.25-.32,2.72,2.72,0,0,0-1.33,0c-.11,1-1.3,1.62-2.64,1.46a3,3,0,0,1-1.63-.73,1.62,1.62,0,0,1-.56-1.39l.37.05a1.28,1.28,0,0,0,.45,1.07,2.58,2.58,0,0,0,1.42.62c1.13.15,2.13-.38,2.24-1.16,0-.44,1-.41,1.72-.32s1.65.31,1.57.74a1.22,1.22,0,0,0,.45,1.07,2.7,2.7,0,0,0,2.94.38,1.28,1.28,0,0,0,.71-.92v-.19l9.69,1.25,0,.38L87.09,26a1.71,1.71,0,0,1-.86,1A2.77,2.77,0,0,1,84.94,27.31Z"/><path class="cls-4" d="M88,22.2a.21.21,0,0,0,.15-.05.33.33,0,0,0,.13-.45,3.14,3.14,0,0,0-2.47-1.65.33.33,0,0,0,0,.66h0A2.53,2.53,0,0,1,87.74,22,.32.32,0,0,0,88,22.2Z"/><path class="cls-4" d="M77.08,21.31a.32.32,0,0,0,.29-.11,2.69,2.69,0,0,1,2.17-1.06.32.32,0,0,0,.36-.29h0a.33.33,0,0,0-.27-.37h0a3.42,3.42,0,0,0-2.75,1.3.33.33,0,0,0,0,.46A.36.36,0,0,0,77.08,21.31Z"/><path class="cls-4" d="M119.14,177.49c-6-30.89-7.36-55.05-13.07-66.78l-28,3.14s16.71,46,24.87,65.68c8.48,20.43,25.21,55.33,25.21,55.33h14S129,191.56,119.14,177.49Z"/><path class="cls-7" d="M30.21,60.55l-3-1.92A2.53,2.53,0,0,0,24,59l-2.06,2.17A2.36,2.36,0,0,0,22,64.5l.12.1,1.47,1.26A11.91,11.91,0,0,0,28,68.22l4.44,1.31,2.92-3.14C36.22,63.11,30.21,60.55,30.21,60.55Z"/><path class="cls-3" d="M75.1,59.08c-1.1,2.69-2.17,5.18-3.34,7.74s-2.36,5.07-3.67,7.58-2.71,5-4.3,7.49a40.89,40.89,0,0,1-2.65,3.74,23.65,23.65,0,0,1-3.61,3.74,12.4,12.4,0,0,1-2.9,1.79c-.33.13-.64.26-1,.37l-.55.15a7.36,7.36,0,0,1-.84.14,7.88,7.88,0,0,1-2.86-.2,11.74,11.74,0,0,1-3.28-1.5,18.6,18.6,0,0,1-2.16-1.57,51.2,51.2,0,0,1-6.25-6.5c-1.83-2.2-3.56-4.41-5.21-6.66s-3.26-4.47-4.89-6.84l8.69-5.61a115.72,115.72,0,0,0,9.08,12.69,42.21,42.21,0,0,0,5,5.18,11.83,11.83,0,0,0,1.11.79,2,2,0,0,0,.38.2,2,2,0,0,0-.85,0,1.37,1.37,0,0,0-.34.07h-.11a4.91,4.91,0,0,0,.51-.39A14.12,14.12,0,0,0,53,79.28c.67-.9,1.34-1.9,2-3a72.78,72.78,0,0,0,3.55-6.71c1.1-2.35,2.16-4.71,3.14-7.16s1.92-4.94,2.71-7.32Z"/><g class="cls-11"><path class="cls-2" d="M75.1,59.08c-1.1,2.69-2.17,5.18-3.34,7.74s-2.36,5.07-3.67,7.58-2.71,5-4.3,7.49a40.89,40.89,0,0,1-2.65,3.74,23.65,23.65,0,0,1-3.61,3.74,12.4,12.4,0,0,1-2.9,1.79c-.33.13-.64.26-1,.37l-.55.15a7.36,7.36,0,0,1-.84.14,7.88,7.88,0,0,1-2.86-.2,11.74,11.74,0,0,1-3.28-1.5,18.6,18.6,0,0,1-2.16-1.57,51.2,51.2,0,0,1-6.25-6.5c-1.83-2.2-3.56-4.41-5.21-6.66s-3.26-4.47-4.89-6.84l8.69-5.61a115.72,115.72,0,0,0,9.08,12.69,42.21,42.21,0,0,0,5,5.18,11.83,11.83,0,0,0,1.11.79,2,2,0,0,0,.38.2,2,2,0,0,0-.85,0,1.37,1.37,0,0,0-.34.07h-.11a4.91,4.91,0,0,0,.51-.39A14.12,14.12,0,0,0,53,79.28c.67-.9,1.34-1.9,2-3a72.78,72.78,0,0,0,3.55-6.71c1.1-2.35,2.16-4.71,3.14-7.16s1.92-4.94,2.71-7.32Z"/></g><path class="cls-3" d="M95.67,47C92.73,52.52,82.24,73.47,81,86.4c-4.64-11.78-3.62-37.85-3.62-37.85a34.8,34.8,0,0,0-9.64,2.36,5.8,5.8,0,0,0-3.59,4.92,205.44,205.44,0,0,0,1.27,40.43c3.26,25.38,6.28,64.84,6.28,64.84s26-1.08,46-5.31c-2.44-19.4-10.8-51.91-10.88-60.61-.09-11.2.17-33.11.52-42.25A5.42,5.42,0,0,0,103,47.37,27.39,27.39,0,0,0,95.67,47Z"/><path class="cls-12" d="M95.67,47C92.73,52.52,82.24,73.47,81,86.4c-4.64-11.78-3.62-37.85-3.62-37.85a34.8,34.8,0,0,0-9.64,2.36,5.8,5.8,0,0,0-3.59,4.92,205.44,205.44,0,0,0,1.27,40.43c3.26,25.38,6.28,64.84,6.28,64.84s26-1.08,46-5.31c-2.44-19.4-10.8-51.91-10.88-60.61-.09-11.2.17-33.12.52-42.26a5.33,5.33,0,0,0-4.09-5.5A26.86,26.86,0,0,0,95.67,47Z"/><path class="cls-2" d="M89.55,156.89C85,132,81.47,95.5,81.18,91.11h.4C81.87,95.5,85.45,132,90,156.84Z"/><path class="cls-2" d="M87.3,112.63H63.36a2.26,2.26,0,0,1-2.08-1.71l-8-37.21a1.34,1.34,0,0,1,.91-1.66,1.51,1.51,0,0,1,.42,0H78.55a2.23,2.23,0,0,1,2.08,1.71l8,37.21a1.35,1.35,0,0,1-.91,1.66A1.54,1.54,0,0,1,87.3,112.63Z"/><path class="cls-3" d="M86.56,112.94H62.2a2.27,2.27,0,0,1-2.11-1.73L51.94,73.36a1.37,1.37,0,0,1,1-1.68,1.21,1.21,0,0,1,.42-.05H77.67a2.27,2.27,0,0,1,2.11,1.73l8.14,37.85a1.36,1.36,0,0,1-.93,1.68A1.27,1.27,0,0,1,86.56,112.94Z"/><path class="cls-7" d="M89.35,91.59l-6.06-.23a5.19,5.19,0,0,0-2.13.38L78,93a2.34,2.34,0,0,0-1.32,3l0,.09L78,98.86a2.54,2.54,0,0,0,2.9,1.36l3.47-.86s6.5-.52,6.74-3.93Z"/><path class="cls-3" d="M106.07,50.39c1.5,2.36,2.88,4.51,4.23,6.82s2.68,4.6,3.93,7,2.43,4.86,3.51,7.5a37.57,37.57,0,0,1,1.43,4.23,17.65,17.65,0,0,1,.69,5.4v.46a4.85,4.85,0,0,1-.13.85c-.06.29-.13.51-.21.79a4,4,0,0,1-.25.65,8.71,8.71,0,0,1-1.14,1.9A14.43,14.43,0,0,1,116,88.14a29.37,29.37,0,0,1-3.93,2.6,73.22,73.22,0,0,1-7.48,3.57c-2.47,1-4.94,2-7.42,2.91S92.19,99,89.61,99.86l-3-9.9c2.36-.64,4.76-1.43,7.11-2.24s4.72-1.69,7-2.63A58.71,58.71,0,0,0,107.06,82a17.33,17.33,0,0,0,2.49-1.65,2.87,2.87,0,0,0,.55-.55,1,1,0,0,0-.15.26.56.56,0,0,1-.08.21,1.28,1.28,0,0,0-.07.28,1.61,1.61,0,0,0-.07.37v0a9.14,9.14,0,0,0-.43-2.19,26.59,26.59,0,0,0-1.11-3,60.18,60.18,0,0,0-3.26-6.34q-1.83-3.16-3.92-6.29c-1.4-2.07-2.83-4.14-4.27-6Z"/><g class="cls-13"><path class="cls-2" d="M106.07,50.39c1.5,2.36,2.88,4.51,4.23,6.82s2.68,4.6,3.93,7,2.43,4.86,3.51,7.5a37.57,37.57,0,0,1,1.43,4.23,17.65,17.65,0,0,1,.69,5.4v.46a4.85,4.85,0,0,1-.13.85c-.06.29-.13.51-.21.79a4,4,0,0,1-.25.65,8.71,8.71,0,0,1-1.14,1.9A14.43,14.43,0,0,1,116,88.14a29.37,29.37,0,0,1-3.93,2.6,73.22,73.22,0,0,1-7.48,3.57c-2.47,1-4.94,2-7.42,2.91S92.19,99,89.61,99.86l-3-9.9c2.36-.64,4.76-1.43,7.11-2.24s4.72-1.69,7-2.63A58.71,58.71,0,0,0,107.06,82a17.33,17.33,0,0,0,2.49-1.65,2.87,2.87,0,0,0,.55-.55,1,1,0,0,0-.15.26.56.56,0,0,1-.08.21,1.28,1.28,0,0,0-.07.28,1.61,1.61,0,0,0-.07.37v0a9.14,9.14,0,0,0-.43-2.19,26.59,26.59,0,0,0-1.11-3,60.18,60.18,0,0,0-3.26-6.34q-1.83-3.16-3.92-6.29c-1.4-2.07-2.83-4.14-4.27-6Z"/></g><path class="cls-4" d="M98.12,77.65a.32.32,0,0,1-.26-.15.31.31,0,0,1,.09-.42h0l1.22-.79a6.66,6.66,0,0,0,3-7L99.7,56.83a4.23,4.23,0,0,0-8.22-.34L88,68.73a6.66,6.66,0,0,0,2.36,7.19l1.16.88a.31.31,0,0,1,0,.44.3.3,0,0,1-.43.05h0L90,76.42a7.3,7.3,0,0,1-2.62-7.86l3.51-12.25a4.86,4.86,0,0,1,9.43.4l2.46,12.5a7.28,7.28,0,0,1-3.26,7.6l-1.23.79A.29.29,0,0,1,98.12,77.65Z"/><path class="cls-4" d="M100,57.09h0l-8.82-.37a.31.31,0,0,1-.3-.33h0a.33.33,0,0,1,.33-.3l8.81.37a.31.31,0,0,1,.3.33h0a.3.3,0,0,1-.31.3Z"/><path class="cls-4" d="M95.72,53.43a.33.33,0,0,1-.32-.31c0-1.57-.48-4.29-2-4.89a.32.32,0,0,1-.2-.4.33.33,0,0,1,.4-.2l0,0c2.18.89,2.36,5,2.36,5.5a.32.32,0,0,1-.31.32Z"/><path class="cls-4" d="M68.73,64.11h-.06a.31.31,0,0,1-.24-.37c1-5.16,5.32-13.31,9.1-15.71a.3.3,0,0,1,.42.09h0a.3.3,0,0,1-.08.41h0C74.21,50.86,70,58.77,69,63.85A.32.32,0,0,1,68.73,64.11Z"/><path class="cls-2" d="M71.31,64.92c-.49,1.25-1.57,2-2.36,1.68s-1.09-1.57-.6-2.85,1.57-2,2.35-1.68S71.8,63.67,71.31,64.92Z"/><path class="cls-2" d="M92.05,77.09c0,.58-.36,1-.75,1s-.68-.51-.66-1.1.37-1,.75-1S92.07,76.5,92.05,77.09Z"/><path class="cls-2" d="M98.82,77.37c0,.58-.35,1-.74,1s-.68-.5-.66-1.09.36-1,.79-1S98.85,76.8,98.82,77.37Z"/></g><g id="freepik--Chat--inject-74"><path class="cls-3" d="M232.05,66.47l-.79,0a12.1,12.1,0,0,0-11.12-13c-.35,0-.7,0-1,0v-.79a12.89,12.89,0,0,1,13,12.77C232.09,65.73,232.08,66.1,232.05,66.47Z"/><rect class="cls-3" x="229.37" y="72.65" width="6.52" height="0.79" transform="translate(143.52 300.01) rotate(-86)"/><path class="cls-3" d="M219.09,55.34h-54.2a11.92,11.92,0,0,0-11.69,11l-.5,7.3A10.15,10.15,0,0,0,162,84.51c.3,0,.61,0,.91,0h54.21L227.63,91l1.67-24.73A10.13,10.13,0,0,0,220,55.37Z"/><rect class="cls-2" x="166.14" y="65.8" width="50.21" height="1.82"/><rect class="cls-2" x="178.63" y="72.26" width="37.28" height="1.82"/><path class="cls-2" d="M137.55,94.39H193a10.35,10.35,0,0,1,10.47,10.25,7.38,7.38,0,0,1,0,.94l-.5,7.46a12.21,12.21,0,0,1-11.95,11.2H135.53l-11.65,6.64,1.72-25.3A12.18,12.18,0,0,1,137.55,94.39Z"/><path class="cls-14" d="M137.55,94.39H193a10.35,10.35,0,0,1,10.47,10.25,7.38,7.38,0,0,1,0,.94l-.5,7.46a12.21,12.21,0,0,1-11.95,11.2H135.53l-11.65,6.64,1.72-25.3A12.18,12.18,0,0,1,137.55,94.39Z"/><rect class="cls-15" x="138.79" y="105.08" width="51.35" height="1.87"/><rect class="cls-15" x="138.34" y="111.69" width="20.29" height="1.87"/><rect class="cls-15" x="163.61" y="111.69" width="12.96" height="1.87"/></g><path class="cls-16" d="M95,69l-.14.08,0-.26s0-.25.13-.27h0a.75.75,0,0,0,0,.11Z"/><path class="cls-16" d="M95.19,68.91l-.08,0h0l0,0,0,0h0v-.3a.58.58,0,0,1,0-.14v0s0-.09.09-.1Z"/><path class="cls-16" d="M94.87,70.36v.16l-.67,0,0-.38h0a.75.75,0,0,1,.36-.79l.07,0h0l.16-.1,0,0,0,0,.14-.08,0,0,0,0h0l0,0,0,0,.06,0,0,0h.08s0,0,0,0h0l0,0h0a.12.12,0,0,1,0,.14l0,0,0,0h0l0,0h0l0,0,0,0,0,0,0,0,0,0,0,0-.08.08-.21.17-.1.09h0a0,0,0,0,0,0,0h.05l.06-.06.33-.28,0,0h0l0,0,.12-.11,0,0,0,0h0l0,0c.17-.13.09-.26.09-.26h0l0,0-.07,0h0l0-.38v-.15h0a.29.29,0,0,1,.06-.21h0a.09.09,0,0,1,.14.06l.14.64a.49.49,0,0,1,0,.34l-.33.65Z"/><path class="cls-16" d="M91.94,69.19l.14.07L92,69s0-.25-.16-.26h0a.39.39,0,0,1,0,.11Z"/><path class="cls-16" d="M91.7,69.09a.22.22,0,0,1,.09,0h0l0,0h0l0-.2,0-.09a.4.4,0,0,0,0-.14v0s-.05-.09-.1-.09Z"/><path class="cls-16" d="M92.18,70.5s0,0,0,0l0,.14.66,0v-.38h0a.75.75,0,0,0-.45-.75l-.07,0h0l-.17-.08,0,0,0,0L92,69.27l0,0h-.08l0,0-.06,0,0,0h0s0,0,0,0h0l0,0h0s0,.08.06.13l0,0h0l0,0h0l0,0,0,0,0,0,0,0,0,0,0,0,.09.07.23.15.1.08h0l0,0s0,0,0,0h0l-.06,0-.36-.25,0,0h0l0,0-.13-.1,0,0,0,0h0l0,0c-.19-.11-.12-.24-.12-.25h0a.08.08,0,0,1,0,0l.07,0h0v-.52h0c0-.1,0-.16-.08-.19h0a.1.1,0,0,0-.14.08l-.08.65a.57.57,0,0,0,.08.34l.4.6Z"/><path class="cls-16" d="M95,68.11a.16.16,0,0,1-.15.17.15.15,0,0,1-.11,0l-.07-.07L94.45,68l-1-.94a.07.07,0,0,0-.11,0l-.94,1-.21.23-.06.08,0,0-.06,0a.16.16,0,0,1-.13-.26l.07-.08.21-.23,1.1-1.22a.16.16,0,0,1,.22,0l.76.69,0-.32a.09.09,0,0,1,.08-.08h.15a.09.09,0,0,1,.09.08l0,.63.13.11.23.21L95,68A.16.16,0,0,1,95,68.11Z"/><path class="cls-3" d="M93.42,67.58h-.08a.09.09,0,0,0-.08.09l0,.26H93a.08.08,0,0,0-.08.08v.08a.07.07,0,0,0,.08.07h.26v.26a.08.08,0,0,0,.08.08h.08a.08.08,0,0,0,.08-.08l0-.26h.26a.09.09,0,0,0,.08-.09V68a.08.08,0,0,0-.08-.08h-.26v-.26A.08.08,0,0,0,93.42,67.58Z"/><path class="cls-3" d="M93.51,69a.09.09,0,0,1-.12,0l-.92-.83-.21.23h0l1.16,1a.08.08,0,0,0,.11,0l1-1.16-.24-.21Z"/><path class="cls-3" d="M95.46,66.71v0h0v0h0v0h0s0,0,0-.07l0-.08v0h0v-.08h0v0a1.1,1.1,0,0,0-.29-.38,1.16,1.16,0,0,0-.41-.25,1.36,1.36,0,0,0-.49-.08,1.21,1.21,0,0,0-.47.12h0l0,0h0l0,0h0v0h0l0,0h0l0,0h0l0,0h0a.08.08,0,0,1-.1,0l0,0,0,0H93l0,0h-.09a1.51,1.51,0,0,0-.48-.07,1.29,1.29,0,0,0-1.11.83,1.26,1.26,0,0,0,.25,1.26v0l0,0,0,0h0l.2.18h0l.21-.23-.19-.18a.9.9,0,0,1-.28-.62.93.93,0,0,1,.89-1,.89.89,0,0,1,.68.24h0l0,0,0,0,0,0,.06.08a.08.08,0,0,0,.13,0l.05-.08a.94.94,0,0,1,1.41-.17h0l0,0,0,0v0l0,0h0a.94.94,0,0,1,0,1.16l-.18.19.23.21.18-.19h0a1.22,1.22,0,0,0,.28-.86Z"/><polygon class="cls-3" points="90.65 71.22 90.74 71.24 90.76 71.51 90.37 71.53 90.36 71.26 90.45 71.22 90.45 71.15 90.1 71.17 90.11 71.25 90.2 71.27 90.24 71.93 90.14 71.97 90.15 72.04 90.5 72.02 90.49 71.95 90.39 71.93 90.38 71.64 90.76 71.62 90.78 71.91 90.68 71.94 90.69 72.02 91.03 72 91.03 71.92 90.93 71.9 90.9 71.23 90.99 71.2 90.99 71.12 90.64 71.14 90.65 71.22"/><path class="cls-3" d="M91.56,71.33a.2.2,0,0,0-.16,0,.28.28,0,0,0-.16,0,.24.24,0,0,0-.11.13.54.54,0,0,0,0,.19.35.35,0,0,0,.05.18.23.23,0,0,0,.11.11.38.38,0,0,0,.16,0l.14,0,.14-.08-.06-.08-.1,0a.16.16,0,0,1-.09,0,.2.2,0,0,1-.11,0,.24.24,0,0,1-.06-.08.29.29,0,0,1,0-.09l.43,0v-.07a.33.33,0,0,0,0-.15A.18.18,0,0,0,91.56,71.33Zm-.25.11a.12.12,0,0,1,.09,0,.11.11,0,0,1,.08,0,.15.15,0,0,1,0,.06.19.19,0,0,1,0,.08h-.27v0A.19.19,0,0,1,91.31,71.44Z"/><path class="cls-3" d="M92.32,71.45a.16.16,0,0,0-.07-.15.29.29,0,0,0-.17,0l-.12,0-.15,0,0,.18h.09V71.4l.06,0h.06a.16.16,0,0,1,.09,0s0,0,0,.08v.08H92a.28.28,0,0,0-.13,0,.15.15,0,0,0-.09.06.16.16,0,0,0,0,.12.17.17,0,0,0,.06.14A.18.18,0,0,0,92,72a.19.19,0,0,0,.12,0,.35.35,0,0,0,.1-.08l0,.1.2,0v-.08h-.09Zm-.21.37a.11.11,0,0,1-.07,0l-.07,0a.15.15,0,0,1,0-.08s0,0,0-.06a.13.13,0,0,1,.1,0h.11v.11A.21.21,0,0,1,92.11,71.82Z"/><polygon class="cls-3" points="92.66 70.94 92.43 70.96 92.43 71.04 92.52 71.06 92.56 71.82 92.47 71.84 92.48 71.92 92.8 71.91 92.8 71.83 92.71 71.81 92.66 70.94"/><path class="cls-3" d="M93.2,71.78h0a.11.11,0,0,1-.06,0,.15.15,0,0,1,0-.08l0-.36h.17v-.1h-.17v-.17l-.15,0v.15l-.1,0v.08h.1l0,.39a.2.2,0,0,0,0,.14.13.13,0,0,0,.12,0,.38.38,0,0,0,.19-.06l0-.08Z"/><path class="cls-3" d="M94,71.38a.21.21,0,0,0,0-.12.23.23,0,0,0-.07-.07.16.16,0,0,0-.1,0,.31.31,0,0,0-.13,0l-.09.07,0-.39-.24,0V71l.08,0,0,.76-.08,0v.08l.32,0v-.08h-.09l0-.39a.21.21,0,0,1,.08-.06.13.13,0,0,1,.08,0,.11.11,0,0,1,.08,0,.19.19,0,0,1,0,.1v.33l-.08,0v.08l.32,0v-.08l-.09,0Z"/><path class="cls-3" d="M94.89,71.36l-.09,0-.1,0-.09,0-.07,0a.09.09,0,0,1,0-.06.12.12,0,0,1,0-.07l.06,0h.22l0,.13h.09V71l-.13,0h-.14l-.15,0a.2.2,0,0,0-.11.09.23.23,0,0,0,0,.14.81.81,0,0,0,0,.11l.07.07.09,0,.1,0,.09,0,.07,0a.09.09,0,0,1,0,.07.14.14,0,0,1,0,.07.18.18,0,0,1-.07,0l-.09,0h-.08l-.08,0,0-.13h-.1v.23l.14,0a.57.57,0,0,0,.13,0,.47.47,0,0,0,.17,0,.4.4,0,0,0,.12-.1.24.24,0,0,0,0-.15.2.2,0,0,0,0-.11A.23.23,0,0,0,94.89,71.36Z"/><path class="cls-3" d="M95.55,71.12a.41.41,0,0,0-.16,0,.31.31,0,0,0-.17,0,.26.26,0,0,0-.1.13.31.31,0,0,0,0,.19.49.49,0,0,0,0,.19.35.35,0,0,0,.11.1.22.22,0,0,0,.16,0,.4.4,0,0,0,.15,0,.41.41,0,0,0,.14-.08l-.06-.08-.1.06-.1,0a.17.17,0,0,1-.1,0,.12.12,0,0,1-.06-.08l0-.09.43,0v-.08a.54.54,0,0,0,0-.15A.22.22,0,0,0,95.55,71.12Zm-.25.12a.09.09,0,0,1,.08,0,.15.15,0,0,1,.08,0s0,0,0,.06a.24.24,0,0,1,0,.08l-.28,0s0,0,0-.06A.22.22,0,0,1,95.3,71.24Z"/><polygon class="cls-3" points="96.09 71.15 96.18 71.16 96.05 71.62 95.9 71.17 95.98 71.15 95.98 71.07 95.68 71.09 95.69 71.17 95.75 71.18 95.96 71.75 96.14 71.74 96.31 71.15 96.37 71.13 96.36 71.05 96.09 71.07 96.09 71.15"/><path class="cls-3" d="M97,71.59l0-.38a.18.18,0,0,0-.06-.15.32.32,0,0,0-.18,0l-.12,0-.15,0,0,.18h.1v-.09h.11a.09.09,0,0,1,.09,0s0,0,0,.08v.09h-.13a.49.49,0,0,0-.14,0,.15.15,0,0,0-.09.06.37.37,0,0,0,0,.12.17.17,0,0,0,.06.14.16.16,0,0,0,.13,0,.27.27,0,0,0,.12,0,.28.28,0,0,0,.1-.09l0,.11.21,0v-.07Zm-.22,0-.08,0-.06,0a.09.09,0,0,1,0-.07.12.12,0,0,1,0-.07.16.16,0,0,1,.11,0h.1v.12Z"/><path class="cls-16" d="M90.59,72.33H90.5l-.22.7-.08,0v0h.27v0h-.1l0-.15.3,0,.06.14-.1,0v0H91v0h-.08Zm0,.09.15.39h-.26Z"/><path class="cls-16" d="M91.22,73h0s0,0-.05,0,0,0,0-.06l0-.37h.15v-.06h-.16v-.14l-.09,0v.13l-.1,0v0H91l0,.38a.15.15,0,0,0,0,.1.12.12,0,0,0,.09,0,.3.3,0,0,0,.14,0l0,0Z"/><polygon class="cls-16" points="91.89 72.75 92.09 72.32 92.17 72.3 92.17 72.25 91.91 72.27 91.91 72.32 92.01 72.33 91.85 72.68 91.67 72.34 91.77 72.32 91.76 72.28 91.49 72.3 91.49 72.34 91.58 72.35 91.81 72.75 91.82 72.96 91.72 72.98 91.73 73.03 92 73.02 92 72.97 91.91 72.95 91.89 72.75"/><path class="cls-16" d="M92.4,72.42a.23.23,0,0,0-.14,0,.24.24,0,0,0-.09.11.79.79,0,0,0,0,.17.28.28,0,0,0,.08.2.19.19,0,0,0,.18.06.24.24,0,0,0,.15,0,.23.23,0,0,0,.08-.11.41.41,0,0,0,0-.16.33.33,0,0,0-.08-.21A.21.21,0,0,0,92.4,72.42Zm.17.4a.2.2,0,0,1-.06.09.14.14,0,0,1-.09,0,.14.14,0,0,1-.13,0,.34.34,0,0,1,0-.34.13.13,0,0,1,.12-.07.15.15,0,0,1,.13,0,.34.34,0,0,1,0,.17A.45.45,0,0,1,92.57,72.82Z"/><path class="cls-16" d="M93.26,72.38h-.17v0h.09l0,.36-.09.07-.08,0a.08.08,0,0,1-.08,0,.13.13,0,0,1,0-.1l0-.38h-.17v0h.09l0,.33a.2.2,0,0,0,0,.14A.16.16,0,0,0,93,73a.23.23,0,0,0,.11,0,.3.3,0,0,0,.1-.07V73l.15,0v0h-.08Z"/><path class="cls-16" d="M93.66,72.38l-.08.07,0-.09-.15,0v0l.09,0,0,.43-.08,0v0h.28v-.05h-.1l0-.36a.13.13,0,0,1,.07-.06.11.11,0,0,1,.08,0h0l0,.09h0v-.16h-.07A.17.17,0,0,0,93.66,72.38Z"/><polygon class="cls-16" points="94.59 72.18 94.68 72.19 94.69 72.46 94.3 72.48 94.29 72.21 94.38 72.19 94.38 72.14 94.11 72.16 94.11 72.21 94.2 72.22 94.23 72.83 94.14 72.86 94.14 72.91 94.42 72.89 94.42 72.84 94.32 72.83 94.31 72.55 94.7 72.53 94.71 72.81 94.62 72.83 94.62 72.88 94.9 72.87 94.89 72.82 94.8 72.81 94.77 72.19 94.86 72.16 94.86 72.11 94.58 72.14 94.59 72.18"/><path class="cls-16" d="M95.21,72.27a.22.22,0,0,0-.14,0,.2.2,0,0,0-.09.11.27.27,0,0,0,0,.16.33.33,0,0,0,.07.21.29.29,0,0,0,.19.06.22.22,0,0,0,.14,0,.2.2,0,0,0,.09-.11.38.38,0,0,0,0-.16.28.28,0,0,0-.08-.2A.25.25,0,0,0,95.21,72.27Zm.16.41a.22.22,0,0,1-.05.08l-.1,0a.17.17,0,0,1-.12,0,.26.26,0,0,1,0-.17.34.34,0,0,1,0-.18.19.19,0,0,1,.13-.07.14.14,0,0,1,.12.06.3.3,0,0,1,.06.16A.51.51,0,0,1,95.37,72.68Z"/><path class="cls-16" d="M96.44,72.39a.18.18,0,0,0,0-.14.14.14,0,0,0-.11,0l-.11,0a.35.35,0,0,0-.1.08.09.09,0,0,0-.06-.07.11.11,0,0,0-.08,0l-.12,0a.28.28,0,0,0-.09.07l0-.09-.15,0v0l.09,0,0,.43-.08,0v0h.25v0h-.08l0-.37s0,0,.08-.06l.08,0a.11.11,0,0,1,.08,0,.13.13,0,0,1,0,.1l0,.31-.08,0v0h.25v0h-.08l0-.34v0h0a.27.27,0,0,1,.08-.07l.08,0a.08.08,0,0,1,.08,0,.13.13,0,0,1,0,.1l0,.32-.08,0v0h.25v0h-.09Z"/><path class="cls-16" d="M97.09,72.45v0l0-.12a.24.24,0,0,0-.08-.09.19.19,0,0,0-.13,0,.23.23,0,0,0-.14,0,.31.31,0,0,0-.08.11.41.41,0,0,0,0,.16.62.62,0,0,0,0,.16.28.28,0,0,0,.1.09.16.16,0,0,0,.12,0l.12,0,.12-.07,0-.05a.47.47,0,0,1-.09.06l-.09,0a.17.17,0,0,1-.1,0,.22.22,0,0,1-.06-.07l0-.11.39,0Zm-.33-.16a.13.13,0,0,1,.09,0l.08,0a.18.18,0,0,1,0,.07.19.19,0,0,1,0,.08h-.31s0,0,0-.06A.11.11,0,0,1,96.76,72.29Z"/></g></g></svg>